<svg id="svg" version="1.1" xmlns="http://www.w3.org/2000/svg" xmlns:xlink="http://www.w3.org/1999/xlink" width="400" height="400" viewBox="0, 0, 400,400"><g id="svgg"><path id="path0" d="M125.626 74.913 C 123.160 76.433,120.844 79.230,120.588 80.996 C 119.997 85.064,118.779 83.700,160.700 125.887 C 168.895 134.134,175.600 141.043,175.600 141.241 C 175.600 141.438,175.778 141.600,175.996 141.600 C 176.213 141.600,179.723 144.974,183.796 149.098 L 191.200 156.595 191.194 199.998 C 191.191 223.869,191.046 243.622,190.874 243.894 C 190.701 244.166,179.589 255.423,166.180 268.910 C 120.941 314.412,120.806 314.553,120.759 316.285 C 120.682 319.192,120.880 320.604,121.450 321.200 C 121.765 321.530,122.523 322.346,123.133 323.014 C 125.577 325.688,129.900 326.967,131.200 325.400 C 131.474 325.070,131.908 324.800,132.165 324.800 C 133.097 324.800,138.768 319.467,141.589 315.937 C 143.476 313.577,189.516 267.600,189.992 267.600 C 191.089 267.600,191.200 269.840,191.200 291.982 L 191.200 314.817 192.211 316.345 C 194.921 320.440,200.066 321.281,203.783 318.236 C 204.819 317.387,205.751 316.401,205.854 316.046 C 205.957 315.691,206.344 314.860,206.713 314.200 C 207.318 313.122,207.400 310.613,207.524 289.524 C 207.671 264.313,207.691 264.091,209.573 265.973 C 210.028 266.428,210.466 266.800,210.547 266.800 C 210.627 266.800,212.202 268.348,214.047 270.240 C 215.891 272.133,217.625 273.888,217.899 274.140 C 218.174 274.393,218.939 275.097,219.599 275.703 C 220.260 276.310,220.800 276.887,220.800 276.985 C 220.800 277.307,222.828 279.200,223.172 279.200 C 223.357 279.200,223.784 279.622,224.122 280.138 C 224.460 280.653,225.402 281.688,226.216 282.438 C 227.029 283.187,227.898 284.032,228.147 284.315 C 229.471 285.821,232.622 288.800,232.890 288.800 C 233.061 288.800,233.200 288.978,233.200 289.197 C 233.200 289.672,235.574 292.000,236.059 292.000 C 236.247 292.000,236.400 292.156,236.400 292.348 C 236.400 292.779,266.089 322.661,267.750 323.900 C 271.519 326.713,278.654 323.337,279.538 318.322 C 280.331 313.822,278.059 311.398,211.700 245.930 L 207.600 241.885 207.600 199.915 L 207.600 157.945 217.989 147.573 C 223.704 141.868,228.564 137.200,228.789 137.200 C 229.015 137.200,229.200 137.015,229.200 136.788 C 229.200 136.465,233.806 131.786,236.911 128.954 C 237.180 128.708,238.161 127.673,239.090 126.654 C 240.020 125.634,240.965 124.800,241.190 124.800 C 241.416 124.800,241.600 124.634,241.600 124.431 C 241.600 124.228,243.232 122.473,245.226 120.531 C 270.395 96.019,279.084 86.838,279.233 84.600 C 279.470 81.052,279.311 80.631,276.732 77.962 L 274.264 75.409 271.410 75.265 C 267.819 75.083,269.035 74.095,253.535 89.785 C 217.166 126.599,208.762 134.866,208.191 134.392 C 207.724 134.005,207.611 129.973,207.515 110.263 C 207.400 86.679,207.397 86.594,206.503 84.749 C 203.469 78.488,195.751 78.040,192.138 83.916 L 191.225 85.400 191.212 108.326 C 191.201 130.246,191.080 132.800,190.057 132.800 C 189.643 132.800,142.440 85.572,141.913 84.631 C 141.690 84.232,140.853 83.228,140.054 82.400 C 139.254 81.571,138.126 80.378,137.546 79.747 C 132.802 74.585,128.795 72.960,125.626 74.913 " stroke="none" fill="#fafbfb" fill-rule="evenodd"></path><path id="path1" d="M174.400 0.400 C 174.400 0.646,172.405 0.800,169.214 0.800 C 164.438 0.800,163.994 0.863,163.600 1.600 C 163.220 2.310,162.762 2.400,159.548 2.400 C 156.262 2.400,155.906 2.474,155.716 3.200 C 155.530 3.910,155.170 4.000,152.516 4.000 C 149.862 4.000,149.502 4.090,149.316 4.800 C 149.131 5.509,148.770 5.600,146.153 5.600 C 143.467 5.600,143.200 5.672,143.200 6.400 C 143.200 7.111,142.933 7.200,140.800 7.200 C 139.015 7.200,138.400 7.343,138.400 7.757 C 138.400 8.496,137.514 8.800,135.367 8.800 C 134.063 8.800,133.600 8.957,133.600 9.400 C 133.600 9.730,133.285 10.011,132.900 10.026 C 130.588 10.110,129.393 10.395,128.980 10.959 C 128.723 11.312,127.992 11.638,127.356 11.685 C 126.720 11.732,125.965 12.092,125.677 12.485 C 125.308 12.990,124.621 13.200,123.340 13.200 C 121.862 13.200,121.486 13.348,121.316 14.000 C 121.152 14.627,120.770 14.800,119.553 14.800 C 118.267 14.800,118.000 14.937,118.000 15.600 C 118.000 16.263,117.733 16.400,116.447 16.400 C 115.230 16.400,114.848 16.573,114.684 17.200 C 114.524 17.813,114.138 18.000,113.037 18.000 C 112.133 18.000,111.303 18.297,110.800 18.800 C 110.360 19.240,109.640 19.600,109.200 19.600 C 108.760 19.600,108.040 19.960,107.600 20.400 C 107.160 20.840,106.530 21.200,106.200 21.200 C 105.870 21.200,105.240 21.560,104.800 22.000 C 104.360 22.440,103.640 22.800,103.200 22.800 C 102.667 22.800,102.400 23.067,102.400 23.600 C 102.400 24.267,102.133 24.400,100.800 24.400 C 99.667 24.400,99.200 24.570,99.200 24.982 C 99.200 25.333,98.631 25.670,97.768 25.832 C 96.981 25.980,96.241 26.348,96.125 26.651 C 96.009 26.953,95.670 27.200,95.371 27.200 C 95.073 27.200,94.635 27.560,94.400 28.000 C 94.143 28.480,93.562 28.800,92.948 28.800 C 92.278 28.800,91.856 29.063,91.726 29.562 C 91.600 30.042,91.036 30.417,90.202 30.573 C 89.473 30.710,88.776 31.087,88.651 31.411 C 88.527 31.735,88.059 32.000,87.613 32.000 C 87.067 32.000,86.800 32.263,86.800 32.800 C 86.800 33.311,86.533 33.600,86.062 33.600 C 85.656 33.600,84.998 33.960,84.600 34.400 C 84.202 34.840,83.527 35.200,83.101 35.200 C 82.662 35.200,82.234 35.547,82.116 36.000 C 82.000 36.443,81.570 36.800,81.153 36.800 C 80.667 36.800,80.400 37.083,80.400 37.600 C 80.400 38.248,80.133 38.400,79.000 38.400 C 77.867 38.400,77.600 38.552,77.600 39.200 C 77.600 39.733,77.333 40.000,76.800 40.000 C 76.267 40.000,76.000 40.267,76.000 40.800 C 76.000 41.333,75.733 41.600,75.200 41.600 C 74.659 41.600,74.400 41.867,74.400 42.424 C 74.400 42.894,74.221 43.136,73.983 42.989 C 73.753 42.847,72.955 43.197,72.209 43.766 C 71.464 44.335,70.571 44.800,70.227 44.800 C 69.882 44.800,69.600 45.049,69.600 45.353 C 69.600 45.658,69.240 46.001,68.800 46.116 C 68.360 46.231,68.000 46.591,68.000 46.916 C 68.000 47.241,67.640 47.601,67.200 47.716 C 66.760 47.831,66.400 48.212,66.400 48.563 C 66.400 48.933,66.065 49.200,65.600 49.200 C 65.067 49.200,64.800 49.467,64.800 50.000 C 64.800 50.533,64.533 50.800,64.000 50.800 C 63.467 50.800,63.200 51.067,63.200 51.600 C 63.200 52.133,62.933 52.400,62.400 52.400 C 61.883 52.400,61.600 52.667,61.600 53.153 C 61.600 53.570,61.243 54.000,60.800 54.116 C 60.360 54.231,60.000 54.612,60.000 54.963 C 60.000 55.313,59.730 55.600,59.400 55.600 C 59.067 55.600,58.800 55.956,58.800 56.400 C 58.800 56.933,58.533 57.200,58.000 57.200 C 57.467 57.200,57.200 57.467,57.200 58.000 C 57.200 58.533,56.933 58.800,56.400 58.800 C 55.960 58.800,55.600 59.049,55.600 59.353 C 55.600 59.658,55.240 60.001,54.800 60.116 C 54.360 60.231,54.000 60.612,54.000 60.963 C 54.000 61.333,53.665 61.600,53.200 61.600 C 52.667 61.600,52.400 61.867,52.400 62.400 C 52.400 62.933,52.133 63.200,51.600 63.200 C 51.067 63.200,50.800 63.467,50.800 64.000 C 50.800 64.533,50.533 64.800,50.000 64.800 C 49.483 64.800,49.200 65.067,49.200 65.553 C 49.200 65.970,48.843 66.400,48.400 66.516 C 47.960 66.631,47.600 66.991,47.600 67.316 C 47.600 67.641,47.240 68.001,46.800 68.116 C 46.360 68.231,46.000 68.612,46.000 68.963 C 46.000 69.313,45.819 69.600,45.597 69.600 C 45.375 69.600,44.911 70.306,44.566 71.169 C 44.220 72.032,43.682 72.837,43.369 72.957 C 43.056 73.077,42.800 73.451,42.800 73.787 C 42.800 74.124,42.530 74.400,42.200 74.400 C 41.867 74.400,41.600 74.756,41.600 75.200 C 41.600 75.733,41.333 76.000,40.800 76.000 C 40.267 76.000,40.000 76.267,40.000 76.800 C 40.000 77.333,39.733 77.600,39.200 77.600 C 38.552 77.600,38.400 77.867,38.400 79.000 C 38.400 80.133,38.248 80.400,37.600 80.400 C 37.083 80.400,36.800 80.667,36.800 81.153 C 36.800 81.570,36.443 82.000,36.000 82.116 C 35.560 82.231,35.200 82.612,35.200 82.963 C 35.200 83.313,34.840 83.960,34.400 84.400 C 33.960 84.840,33.600 85.560,33.600 86.000 C 33.600 86.533,33.333 86.800,32.800 86.800 C 32.263 86.800,32.000 87.067,32.000 87.613 C 32.000 88.059,31.735 88.527,31.411 88.651 C 31.087 88.776,30.710 89.473,30.573 90.202 C 30.417 91.036,30.042 91.600,29.562 91.726 C 29.063 91.856,28.800 92.278,28.800 92.948 C 28.800 93.562,28.480 94.143,28.000 94.400 C 27.560 94.635,27.200 95.073,27.200 95.371 C 27.200 95.670,26.953 96.009,26.651 96.125 C 26.348 96.241,25.980 96.981,25.832 97.768 C 25.670 98.631,25.333 99.200,24.982 99.200 C 24.570 99.200,24.400 99.667,24.400 100.800 C 24.400 102.133,24.267 102.400,23.600 102.400 C 22.978 102.400,22.800 102.667,22.800 103.597 C 22.800 104.360,22.510 104.974,22.000 105.293 C 21.560 105.568,21.200 106.109,21.200 106.496 C 21.200 106.883,20.840 107.560,20.400 108.000 C 19.960 108.440,19.600 109.070,19.600 109.400 C 19.600 109.730,19.240 110.360,18.800 110.800 C 18.297 111.303,18.000 112.133,18.000 113.037 C 18.000 114.138,17.813 114.524,17.200 114.684 C 16.573 114.848,16.400 115.230,16.400 116.447 C 16.400 117.733,16.263 118.000,15.600 118.000 C 14.937 118.000,14.800 118.267,14.800 119.553 C 14.800 120.770,14.627 121.152,14.000 121.316 C 13.347 121.487,13.200 121.862,13.200 123.359 C 13.200 124.760,13.011 125.311,12.400 125.693 C 11.899 126.006,11.600 126.626,11.600 127.352 C 11.600 127.990,11.306 128.726,10.948 128.989 C 10.549 129.280,10.218 130.270,10.097 131.533 C 9.963 132.922,9.718 133.600,9.349 133.600 C 8.966 133.600,8.800 134.136,8.800 135.367 C 8.800 137.514,8.496 138.400,7.757 138.400 C 7.344 138.400,7.200 139.008,7.200 140.753 C 7.200 142.770,7.086 143.137,6.400 143.316 C 5.696 143.500,5.600 143.862,5.600 146.316 C 5.600 148.770,5.504 149.132,4.800 149.316 C 4.090 149.502,4.000 149.862,4.000 152.516 C 4.000 155.170,3.910 155.530,3.200 155.716 C 2.474 155.906,2.400 156.262,2.400 159.548 C 2.400 162.762,2.310 163.220,1.600 163.600 C 0.863 163.994,0.800 164.438,0.800 169.214 C 0.800 172.405,0.646 174.400,0.400 174.400 C 0.138 174.400,0.000 183.200,0.000 200.000 C 0.000 216.800,0.138 225.600,0.400 225.600 C 0.646 225.600,0.800 227.595,0.800 230.786 C 0.800 235.562,0.863 236.006,1.600 236.400 C 2.310 236.780,2.400 237.238,2.400 240.452 C 2.400 243.738,2.474 244.094,3.200 244.284 C 3.910 244.470,4.000 244.830,4.000 247.484 C 4.000 250.138,4.090 250.498,4.800 250.684 C 5.504 250.868,5.600 251.230,5.600 253.684 C 5.600 256.138,5.696 256.500,6.400 256.684 C 7.086 256.863,7.200 257.230,7.200 259.247 C 7.200 260.992,7.344 261.600,7.757 261.600 C 8.496 261.600,8.800 262.486,8.800 264.633 C 8.800 265.864,8.966 266.400,9.349 266.400 C 9.718 266.400,9.963 267.078,10.097 268.467 C 10.218 269.730,10.549 270.720,10.948 271.011 C 11.308 271.275,11.600 272.044,11.600 272.730 C 11.600 273.562,11.864 274.113,12.400 274.400 C 13.020 274.732,13.200 275.238,13.200 276.652 C 13.200 278.138,13.348 278.513,14.000 278.684 C 14.627 278.848,14.800 279.230,14.800 280.447 C 14.800 281.733,14.937 282.000,15.600 282.000 C 16.263 282.000,16.400 282.267,16.400 283.553 C 16.400 284.770,16.573 285.152,17.200 285.316 C 17.813 285.476,18.000 285.862,18.000 286.963 C 18.000 287.867,18.297 288.697,18.800 289.200 C 19.240 289.640,19.600 290.360,19.600 290.800 C 19.600 291.240,19.960 291.960,20.400 292.400 C 20.840 292.840,21.200 293.470,21.200 293.800 C 21.200 294.130,21.560 294.760,22.000 295.200 C 22.440 295.640,22.800 296.360,22.800 296.800 C 22.800 297.333,23.067 297.600,23.600 297.600 C 24.267 297.600,24.400 297.867,24.400 299.200 C 24.400 300.333,24.570 300.800,24.982 300.800 C 25.333 300.800,25.670 301.369,25.832 302.232 C 25.980 303.019,26.348 303.759,26.651 303.875 C 26.953 303.991,27.200 304.330,27.200 304.629 C 27.200 304.927,27.560 305.365,28.000 305.600 C 28.524 305.880,28.800 306.438,28.800 307.214 C 28.800 308.110,28.985 308.400,29.555 308.400 C 30.104 308.400,30.384 308.789,30.578 309.821 C 30.724 310.603,31.104 311.342,31.422 311.464 C 31.740 311.586,32.000 312.026,32.000 312.443 C 32.000 312.918,32.281 313.200,32.755 313.200 C 33.302 313.200,33.584 313.587,33.774 314.600 C 33.931 315.438,34.270 316.000,34.618 316.000 C 34.972 316.000,35.200 316.392,35.200 317.000 C 35.200 317.733,35.413 318.000,36.000 318.000 C 36.533 318.000,36.800 318.267,36.800 318.800 C 36.800 319.333,37.067 319.600,37.600 319.600 C 38.248 319.600,38.400 319.867,38.400 321.000 C 38.400 322.133,38.552 322.400,39.200 322.400 C 39.724 322.400,40.000 322.667,40.000 323.173 C 40.000 323.598,40.360 324.060,40.800 324.200 C 41.240 324.340,41.600 324.712,41.600 325.027 C 41.600 325.342,41.870 325.600,42.200 325.600 C 42.530 325.600,42.800 325.876,42.800 326.213 C 42.800 326.549,43.056 326.923,43.369 327.043 C 43.682 327.163,44.220 327.968,44.566 328.831 C 44.911 329.694,45.375 330.400,45.597 330.400 C 45.819 330.400,46.000 330.687,46.000 331.037 C 46.000 331.388,46.360 331.769,46.800 331.884 C 47.240 331.999,47.600 332.359,47.600 332.684 C 47.600 333.009,47.960 333.369,48.400 333.484 C 48.843 333.600,49.200 334.030,49.200 334.447 C 49.200 334.933,49.483 335.200,50.000 335.200 C 50.533 335.200,50.800 335.467,50.800 336.000 C 50.800 336.533,51.067 336.800,51.600 336.800 C 52.133 336.800,52.400 337.067,52.400 337.600 C 52.400 338.133,52.667 338.400,53.200 338.400 C 53.733 338.400,54.000 338.667,54.000 339.200 C 54.000 339.733,54.267 340.000,54.800 340.000 C 55.333 340.000,55.600 340.267,55.600 340.800 C 55.600 341.333,55.867 341.600,56.400 341.600 C 56.844 341.600,57.200 341.867,57.200 342.200 C 57.200 342.533,57.556 342.800,58.000 342.800 C 58.533 342.800,58.800 343.067,58.800 343.600 C 58.800 344.044,59.067 344.400,59.400 344.400 C 59.730 344.400,60.000 344.687,60.000 345.037 C 60.000 345.388,60.360 345.769,60.800 345.884 C 61.243 346.000,61.600 346.430,61.600 346.847 C 61.600 347.333,61.883 347.600,62.400 347.600 C 62.933 347.600,63.200 347.867,63.200 348.400 C 63.200 348.933,63.467 349.200,64.000 349.200 C 64.533 349.200,64.800 349.467,64.800 350.000 C 64.800 350.533,65.067 350.800,65.600 350.800 C 66.065 350.800,66.400 351.067,66.400 351.437 C 66.400 351.788,66.760 352.169,67.200 352.284 C 67.640 352.399,68.000 352.759,68.000 353.084 C 68.000 353.409,68.360 353.769,68.800 353.884 C 69.240 353.999,69.600 354.342,69.600 354.647 C 69.600 354.951,69.917 355.200,70.304 355.200 C 70.691 355.200,71.493 355.650,72.087 356.200 C 72.680 356.750,73.443 357.200,73.783 357.200 C 74.122 357.200,74.400 357.470,74.400 357.800 C 74.400 358.133,74.756 358.400,75.200 358.400 C 75.733 358.400,76.000 358.667,76.000 359.200 C 76.000 359.733,76.267 360.000,76.800 360.000 C 77.333 360.000,77.600 360.267,77.600 360.800 C 77.600 361.448,77.867 361.600,79.000 361.600 C 80.133 361.600,80.400 361.752,80.400 362.400 C 80.400 362.917,80.667 363.200,81.153 363.200 C 81.570 363.200,82.000 363.557,82.116 364.000 C 82.234 364.453,82.662 364.800,83.101 364.800 C 83.527 364.800,84.202 365.160,84.600 365.600 C 84.998 366.040,85.656 366.400,86.062 366.400 C 86.533 366.400,86.800 366.689,86.800 367.200 C 86.800 367.737,87.067 368.000,87.613 368.000 C 88.059 368.000,88.527 368.265,88.651 368.589 C 88.776 368.913,89.490 369.293,90.239 369.434 C 91.216 369.617,91.600 369.902,91.600 370.445 C 91.600 371.015,91.890 371.200,92.786 371.200 C 93.562 371.200,94.120 371.476,94.400 372.000 C 94.635 372.440,95.073 372.800,95.371 372.800 C 95.670 372.800,96.014 373.060,96.136 373.378 C 96.258 373.696,96.997 374.076,97.779 374.222 C 98.597 374.376,99.200 374.725,99.200 375.045 C 99.200 375.426,99.701 375.600,100.800 375.600 C 102.133 375.600,102.400 375.733,102.400 376.400 C 102.400 376.933,102.667 377.200,103.200 377.200 C 103.640 377.200,104.360 377.560,104.800 378.000 C 105.240 378.440,105.870 378.800,106.200 378.800 C 106.530 378.800,107.160 379.160,107.600 379.600 C 108.040 380.040,108.760 380.400,109.200 380.400 C 109.640 380.400,110.360 380.760,110.800 381.200 C 111.240 381.640,112.022 382.000,112.538 382.000 C 113.054 382.000,113.802 382.360,114.200 382.800 C 114.685 383.336,115.432 383.600,116.462 383.600 C 117.733 383.600,118.000 383.739,118.000 384.400 C 118.000 385.063,118.267 385.200,119.553 385.200 C 120.770 385.200,121.152 385.373,121.316 386.000 C 121.487 386.652,121.862 386.800,123.348 386.800 C 124.762 386.800,125.268 386.980,125.600 387.600 C 125.887 388.136,126.438 388.400,127.270 388.400 C 127.956 388.400,128.725 388.692,128.989 389.052 C 129.280 389.451,130.270 389.782,131.533 389.903 C 132.820 390.027,133.600 390.291,133.600 390.604 C 133.600 391.208,134.862 391.587,136.900 391.595 C 137.964 391.598,138.400 391.774,138.400 392.200 C 138.400 392.667,138.933 392.800,140.800 392.800 C 142.933 392.800,143.200 392.889,143.200 393.600 C 143.200 394.328,143.467 394.400,146.153 394.400 C 148.770 394.400,149.131 394.491,149.316 395.200 C 149.502 395.910,149.862 396.000,152.516 396.000 C 155.170 396.000,155.530 396.090,155.716 396.800 C 155.906 397.526,156.262 397.600,159.548 397.600 C 162.762 397.600,163.220 397.690,163.600 398.400 C 163.994 399.137,164.438 399.200,169.214 399.200 C 172.405 399.200,174.400 399.354,174.400 399.600 C 174.400 399.863,183.200 400.000,200.000 400.000 C 216.800 400.000,225.600 399.863,225.600 399.600 C 225.600 399.354,227.595 399.200,230.786 399.200 C 235.562 399.200,236.006 399.137,236.400 398.400 C 236.780 397.690,237.238 397.600,240.452 397.600 C 243.738 397.600,244.094 397.526,244.284 396.800 C 244.470 396.090,244.830 396.000,247.484 396.000 C 250.138 396.000,250.498 395.910,250.684 395.200 C 250.869 394.491,251.230 394.400,253.847 394.400 C 256.533 394.400,256.800 394.328,256.800 393.600 C 256.800 392.889,257.067 392.800,259.200 392.800 C 261.067 392.800,261.600 392.667,261.600 392.200 C 261.600 391.757,262.063 391.600,263.367 391.600 C 265.472 391.600,266.400 391.297,266.400 390.608 C 266.400 390.291,267.171 390.028,268.467 389.903 C 269.730 389.782,270.720 389.451,271.011 389.052 C 271.275 388.692,272.044 388.400,272.730 388.400 C 273.562 388.400,274.113 388.136,274.400 387.600 C 274.732 386.980,275.238 386.800,276.652 386.800 C 278.138 386.800,278.513 386.652,278.684 386.000 C 278.848 385.373,279.230 385.200,280.447 385.200 C 281.733 385.200,282.000 385.063,282.000 384.400 C 282.000 383.737,282.267 383.600,283.553 383.600 C 284.770 383.600,285.152 383.427,285.316 382.800 C 285.476 382.187,285.862 382.000,286.963 382.000 C 287.867 382.000,288.697 381.703,289.200 381.200 C 289.640 380.760,290.360 380.400,290.800 380.400 C 291.240 380.400,291.960 380.040,292.400 379.600 C 292.840 379.160,293.470 378.800,293.800 378.800 C 294.130 378.800,294.760 378.440,295.200 378.000 C 295.640 377.560,296.360 377.200,296.800 377.200 C 297.333 377.200,297.600 376.933,297.600 376.400 C 297.600 375.733,297.867 375.600,299.200 375.600 C 300.299 375.600,300.800 375.426,300.800 375.045 C 300.800 374.725,301.403 374.376,302.221 374.222 C 303.003 374.076,303.742 373.696,303.864 373.378 C 303.986 373.060,304.330 372.800,304.629 372.800 C 304.927 372.800,305.365 372.440,305.600 372.000 C 305.880 371.476,306.438 371.200,307.214 371.200 C 308.110 371.200,308.400 371.015,308.400 370.445 C 308.400 369.902,308.784 369.617,309.761 369.434 C 310.510 369.293,311.224 368.913,311.349 368.589 C 311.473 368.265,311.941 368.000,312.387 368.000 C 312.917 368.000,313.200 367.737,313.200 367.245 C 313.200 366.698,313.587 366.416,314.600 366.226 C 315.438 366.069,316.000 365.730,316.000 365.382 C 316.000 365.028,316.392 364.800,317.000 364.800 C 317.733 364.800,318.000 364.587,318.000 364.000 C 318.000 363.467,318.267 363.200,318.800 363.200 C 319.333 363.200,319.600 362.933,319.600 362.400 C 319.600 361.752,319.867 361.600,321.000 361.600 C 322.133 361.600,322.400 361.448,322.400 360.800 C 322.400 360.255,322.667 360.000,323.237 360.000 C 323.738 360.000,324.159 359.679,324.284 359.200 C 324.399 358.760,324.742 358.400,325.047 358.400 C 325.351 358.400,325.600 358.130,325.600 357.800 C 325.600 357.470,325.878 357.200,326.217 357.200 C 326.557 357.200,327.320 356.750,327.913 356.200 C 328.507 355.650,329.309 355.200,329.696 355.200 C 330.083 355.200,330.400 354.951,330.400 354.647 C 330.400 354.342,330.760 353.999,331.200 353.884 C 331.640 353.769,332.000 353.388,332.000 353.037 C 332.000 352.667,332.335 352.400,332.800 352.400 C 333.333 352.400,333.600 352.133,333.600 351.600 C 333.600 351.067,333.867 350.800,334.400 350.800 C 334.933 350.800,335.200 350.533,335.200 350.000 C 335.200 349.467,335.467 349.200,336.000 349.200 C 336.533 349.200,336.800 348.933,336.800 348.400 C 336.800 347.867,337.067 347.600,337.600 347.600 C 338.133 347.600,338.400 347.333,338.400 346.800 C 338.400 346.267,338.667 346.000,339.200 346.000 C 339.733 346.000,340.000 345.733,340.000 345.200 C 340.000 344.667,340.267 344.400,340.800 344.400 C 341.333 344.400,341.600 344.133,341.600 343.600 C 341.600 343.156,341.867 342.800,342.200 342.800 C 342.530 342.800,342.800 342.530,342.800 342.200 C 342.800 341.867,343.156 341.600,343.600 341.600 C 344.133 341.600,344.400 341.333,344.400 340.800 C 344.400 340.267,344.667 340.000,345.200 340.000 C 345.733 340.000,346.000 339.733,346.000 339.200 C 346.000 338.667,346.267 338.400,346.800 338.400 C 347.333 338.400,347.600 338.133,347.600 337.600 C 347.600 337.067,347.867 336.800,348.400 336.800 C 348.933 336.800,349.200 336.533,349.200 336.000 C 349.200 335.467,349.467 335.200,350.000 335.200 C 350.517 335.200,350.800 334.933,350.800 334.447 C 350.800 334.030,351.157 333.600,351.600 333.484 C 352.040 333.369,352.400 333.009,352.400 332.684 C 352.400 332.359,352.760 331.999,353.200 331.884 C 353.640 331.769,354.000 331.388,354.000 331.037 C 354.000 330.687,354.181 330.400,354.403 330.400 C 354.625 330.400,355.095 329.680,355.447 328.800 C 355.799 327.920,356.337 327.200,356.643 327.200 C 356.950 327.200,357.200 326.840,357.200 326.400 C 357.200 325.956,357.467 325.600,357.800 325.600 C 358.130 325.600,358.400 325.351,358.400 325.047 C 358.400 324.742,358.760 324.399,359.200 324.284 C 359.679 324.159,360.000 323.738,360.000 323.237 C 360.000 322.667,360.255 322.400,360.800 322.400 C 361.448 322.400,361.600 322.133,361.600 321.000 C 361.600 319.867,361.752 319.600,362.400 319.600 C 362.933 319.600,363.200 319.333,363.200 318.800 C 363.200 318.267,363.467 318.000,364.000 318.000 C 364.587 318.000,364.800 317.733,364.800 317.000 C 364.800 316.392,365.028 316.000,365.382 316.000 C 365.730 316.000,366.069 315.438,366.226 314.600 C 366.416 313.587,366.698 313.200,367.245 313.200 C 367.737 313.200,368.000 312.917,368.000 312.387 C 368.000 311.941,368.265 311.473,368.589 311.349 C 368.913 311.224,369.293 310.510,369.434 309.761 C 369.617 308.784,369.902 308.400,370.445 308.400 C 371.015 308.400,371.200 308.110,371.200 307.214 C 371.200 306.438,371.476 305.880,372.000 305.600 C 372.440 305.365,372.800 304.903,372.800 304.573 C 372.800 304.244,373.065 303.873,373.389 303.749 C 373.713 303.624,374.093 302.910,374.234 302.161 C 374.379 301.389,374.729 300.800,375.045 300.800 C 375.426 300.800,375.600 300.299,375.600 299.200 C 375.600 297.867,375.733 297.600,376.400 297.600 C 376.933 297.600,377.200 297.333,377.200 296.800 C 377.200 296.360,377.560 295.640,378.000 295.200 C 378.440 294.760,378.800 294.130,378.800 293.800 C 378.800 293.470,379.160 292.840,379.600 292.400 C 380.040 291.960,380.400 291.240,380.400 290.800 C 380.400 290.360,380.760 289.640,381.200 289.200 C 381.703 288.697,382.000 287.867,382.000 286.963 C 382.000 285.862,382.187 285.476,382.800 285.316 C 383.427 285.152,383.600 284.770,383.600 283.553 C 383.600 282.267,383.737 282.000,384.400 282.000 C 385.063 282.000,385.200 281.733,385.200 280.447 C 385.200 279.230,385.373 278.848,386.000 278.684 C 386.652 278.513,386.800 278.138,386.800 276.652 C 386.800 275.238,386.980 274.732,387.600 274.400 C 388.136 274.113,388.400 273.562,388.400 272.730 C 388.400 272.044,388.692 271.275,389.052 271.011 C 389.451 270.720,389.782 269.730,389.903 268.467 C 390.028 267.171,390.291 266.400,390.608 266.400 C 391.297 266.400,391.600 265.472,391.600 263.367 C 391.600 262.063,391.757 261.600,392.200 261.600 C 392.665 261.600,392.800 261.072,392.800 259.247 C 392.800 257.230,392.914 256.863,393.600 256.684 C 394.304 256.500,394.400 256.138,394.400 253.684 C 394.400 251.230,394.496 250.868,395.200 250.684 C 395.910 250.498,396.000 250.138,396.000 247.484 C 396.000 244.830,396.090 244.470,396.800 244.284 C 397.526 244.094,397.600 243.738,397.600 240.452 C 397.600 237.238,397.690 236.780,398.400 236.400 C 399.137 236.006,399.200 235.562,399.200 230.786 C 399.200 227.595,399.354 225.600,399.600 225.600 C 399.863 225.600,400.000 216.800,400.000 200.000 C 400.000 183.200,399.863 174.400,399.600 174.400 C 399.354 174.400,399.200 172.405,399.200 169.214 C 399.200 164.438,399.137 163.994,398.400 163.600 C 397.690 163.220,397.600 162.762,397.600 159.548 C 397.600 156.262,397.526 155.906,396.800 155.716 C 396.090 155.530,396.000 155.170,396.000 152.516 C 396.000 149.862,395.910 149.502,395.200 149.316 C 394.496 149.132,394.400 148.770,394.400 146.316 C 394.400 143.862,394.304 143.500,393.600 143.316 C 392.914 143.137,392.800 142.770,392.800 140.753 C 392.800 138.928,392.665 138.400,392.200 138.400 C 391.757 138.400,391.600 137.937,391.600 136.633 C 391.600 134.528,391.297 133.600,390.608 133.600 C 390.291 133.600,390.028 132.829,389.903 131.533 C 389.782 130.270,389.451 129.280,389.052 128.989 C 388.694 128.726,388.400 127.990,388.400 127.352 C 388.400 126.626,388.101 126.006,387.600 125.693 C 386.989 125.311,386.800 124.760,386.800 123.359 C 386.800 121.862,386.653 121.487,386.000 121.316 C 385.373 121.152,385.200 120.770,385.200 119.553 C 385.200 118.267,385.063 118.000,384.400 118.000 C 383.737 118.000,383.600 117.733,383.600 116.447 C 383.600 115.230,383.427 114.848,382.800 114.684 C 382.187 114.524,382.000 114.138,382.000 113.037 C 382.000 112.133,381.703 111.303,381.200 110.800 C 380.760 110.360,380.400 109.730,380.400 109.400 C 380.400 109.070,380.040 108.440,379.600 108.000 C 379.160 107.560,378.800 106.883,378.800 106.496 C 378.800 106.109,378.440 105.568,378.000 105.293 C 377.490 104.974,377.200 104.360,377.200 103.597 C 377.200 102.667,377.022 102.400,376.400 102.400 C 375.733 102.400,375.600 102.133,375.600 100.800 C 375.600 99.701,375.426 99.200,375.045 99.200 C 374.729 99.200,374.379 98.611,374.234 97.839 C 374.093 97.090,373.713 96.376,373.389 96.251 C 373.065 96.127,372.800 95.756,372.800 95.427 C 372.800 95.097,372.440 94.635,372.000 94.400 C 371.476 94.120,371.200 93.562,371.200 92.786 C 371.200 91.890,371.015 91.600,370.445 91.600 C 369.902 91.600,369.617 91.216,369.434 90.239 C 369.293 89.490,368.913 88.776,368.589 88.651 C 368.265 88.527,368.000 88.059,368.000 87.613 C 368.000 87.083,367.737 86.800,367.245 86.800 C 366.698 86.800,366.416 86.413,366.226 85.400 C 366.069 84.562,365.730 84.000,365.382 84.000 C 365.028 84.000,364.800 83.608,364.800 83.000 C 364.800 82.267,364.587 82.000,364.000 82.000 C 363.467 82.000,363.200 81.733,363.200 81.200 C 363.200 80.667,362.933 80.400,362.400 80.400 C 361.752 80.400,361.600 80.133,361.600 79.000 C 361.600 77.867,361.448 77.600,360.800 77.600 C 360.267 77.600,360.000 77.333,360.000 76.800 C 360.000 76.267,359.733 76.000,359.200 76.000 C 358.667 76.000,358.400 75.733,358.400 75.200 C 358.400 74.756,358.133 74.400,357.800 74.400 C 357.467 74.400,357.200 74.044,357.200 73.600 C 357.200 73.160,356.950 72.800,356.643 72.800 C 356.337 72.800,355.799 72.080,355.447 71.200 C 355.095 70.320,354.646 69.600,354.450 69.600 C 354.254 69.600,353.999 69.240,353.884 68.800 C 353.769 68.360,353.409 68.000,353.084 68.000 C 352.759 68.000,352.399 67.640,352.284 67.200 C 352.169 66.760,351.788 66.400,351.437 66.400 C 351.067 66.400,350.800 66.065,350.800 65.600 C 350.800 65.067,350.533 64.800,350.000 64.800 C 349.467 64.800,349.200 64.533,349.200 64.000 C 349.200 63.467,348.933 63.200,348.400 63.200 C 347.867 63.200,347.600 62.933,347.600 62.400 C 347.600 61.883,347.333 61.600,346.847 61.600 C 346.418 61.600,345.999 61.238,345.874 60.760 C 345.744 60.263,345.468 60.034,345.200 60.200 C 344.932 60.366,344.656 60.137,344.526 59.640 C 344.401 59.162,343.982 58.800,343.553 58.800 C 343.067 58.800,342.800 58.517,342.800 58.000 C 342.800 57.556,342.533 57.200,342.200 57.200 C 341.867 57.200,341.600 56.844,341.600 56.400 C 341.600 55.867,341.333 55.600,340.800 55.600 C 340.267 55.600,340.000 55.333,340.000 54.800 C 340.000 54.267,339.733 54.000,339.200 54.000 C 338.667 54.000,338.400 53.733,338.400 53.200 C 338.400 52.667,338.133 52.400,337.600 52.400 C 337.067 52.400,336.800 52.133,336.800 51.600 C 336.800 51.067,336.533 50.800,336.000 50.800 C 335.467 50.800,335.200 50.533,335.200 50.000 C 335.200 49.483,334.933 49.200,334.447 49.200 C 334.030 49.200,333.600 48.843,333.484 48.400 C 333.369 47.960,333.009 47.600,332.684 47.600 C 332.359 47.600,331.999 47.240,331.884 46.800 C 331.769 46.360,331.388 46.000,331.037 46.000 C 330.687 46.000,330.400 45.730,330.400 45.400 C 330.400 45.070,330.049 44.800,329.621 44.800 C 329.192 44.800,328.349 44.344,327.747 43.786 C 327.145 43.228,326.415 42.862,326.126 42.973 C 325.801 43.098,325.600 42.874,325.600 42.387 C 325.600 41.954,325.351 41.600,325.047 41.600 C 324.742 41.600,324.399 41.240,324.284 40.800 C 324.159 40.321,323.738 40.000,323.237 40.000 C 322.667 40.000,322.400 39.745,322.400 39.200 C 322.400 38.552,322.133 38.400,321.000 38.400 C 319.867 38.400,319.600 38.248,319.600 37.600 C 319.600 37.083,319.333 36.800,318.847 36.800 C 318.430 36.800,318.000 36.443,317.884 36.000 C 317.766 35.547,317.338 35.200,316.899 35.200 C 316.473 35.200,315.798 34.840,315.400 34.400 C 315.002 33.960,314.344 33.600,313.938 33.600 C 313.467 33.600,313.200 33.311,313.200 32.800 C 313.200 32.263,312.933 32.000,312.387 32.000 C 311.941 32.000,311.473 31.735,311.349 31.411 C 311.224 31.087,310.527 30.710,309.798 30.573 C 308.964 30.417,308.400 30.042,308.274 29.562 C 308.144 29.063,307.722 28.800,307.052 28.800 C 306.438 28.800,305.857 28.480,305.600 28.000 C 305.365 27.560,304.927 27.200,304.629 27.200 C 304.330 27.200,303.991 26.953,303.875 26.651 C 303.759 26.348,303.019 25.980,302.232 25.832 C 301.369 25.670,300.800 25.333,300.800 24.982 C 300.800 24.570,300.333 24.400,299.200 24.400 C 297.867 24.400,297.600 24.267,297.600 23.600 C 297.600 23.067,297.333 22.800,296.800 22.800 C 296.360 22.800,295.640 22.440,295.200 22.000 C 294.760 21.560,294.130 21.200,293.800 21.200 C 293.470 21.200,292.840 20.840,292.400 20.400 C 291.960 19.960,291.240 19.600,290.800 19.600 C 290.360 19.600,289.640 19.240,289.200 18.800 C 288.697 18.297,287.867 18.000,286.963 18.000 C 285.862 18.000,285.476 17.813,285.316 17.200 C 285.152 16.573,284.770 16.400,283.553 16.400 C 282.267 16.400,282.000 16.263,282.000 15.600 C 282.000 14.937,281.733 14.800,280.447 14.800 C 279.230 14.800,278.848 14.627,278.684 14.000 C 278.513 13.348,278.138 13.200,276.652 13.200 C 275.288 13.200,274.728 13.014,274.433 12.461 C 274.186 12.000,273.567 11.709,272.782 11.687 C 272.091 11.667,271.307 11.352,271.039 10.985 C 270.609 10.398,269.430 10.111,267.100 10.026 C 266.715 10.011,266.400 9.730,266.400 9.400 C 266.400 8.957,265.937 8.800,264.633 8.800 C 262.486 8.800,261.600 8.496,261.600 7.757 C 261.600 7.343,260.985 7.200,259.200 7.200 C 257.067 7.200,256.800 7.111,256.800 6.400 C 256.800 5.672,256.533 5.600,253.847 5.600 C 251.230 5.600,250.869 5.509,250.684 4.800 C 250.498 4.090,250.138 4.000,247.484 4.000 C 244.830 4.000,244.470 3.910,244.284 3.200 C 244.094 2.474,243.738 2.400,240.452 2.400 C 237.238 2.400,236.780 2.310,236.400 1.600 C 236.006 0.863,235.562 0.800,230.786 0.800 C 227.595 0.800,225.600 0.646,225.600 0.400 C 225.600 0.138,216.800 0.000,200.000 0.000 C 183.200 0.000,174.400 0.138,174.400 0.400 M131.200 73.197 C 131.970 73.413,133.265 74.177,134.077 74.895 C 134.889 75.613,136.104 76.648,136.777 77.196 C 137.450 77.743,138.000 78.418,138.000 78.696 C 138.000 78.973,138.194 79.200,138.431 79.200 C 138.855 79.200,141.200 81.349,141.200 81.738 C 141.200 82.365,189.682 130.796,190.071 130.556 C 190.255 130.442,190.320 129.874,190.215 129.293 C 189.905 127.582,189.933 86.729,190.246 85.221 C 190.799 82.551,193.767 79.200,195.578 79.200 C 196.162 79.200,196.831 79.009,197.064 78.776 C 197.633 78.207,200.750 78.190,201.312 78.752 C 201.559 78.999,202.193 79.200,202.722 79.200 C 203.914 79.200,205.745 80.705,207.246 82.919 L 208.385 84.600 208.393 108.939 L 208.400 133.277 227.351 114.139 C 237.774 103.612,250.779 90.475,256.251 84.945 C 261.723 79.414,266.650 74.755,267.200 74.591 C 267.750 74.427,268.555 74.046,268.989 73.746 C 271.900 71.731,278.960 76.357,280.473 81.271 C 281.180 83.567,280.463 87.512,279.266 87.911 C 279.010 87.997,278.800 88.261,278.800 88.497 C 278.800 88.992,229.715 138.000,229.220 138.000 C 229.040 138.000,228.799 138.360,228.684 138.800 C 228.569 139.240,228.188 139.600,227.837 139.600 C 227.487 139.600,227.200 139.876,227.200 140.213 C 227.200 140.549,226.931 140.928,226.603 141.054 C 226.084 141.253,210.829 156.346,209.200 158.271 C 208.203 159.449,208.301 241.089,209.300 241.648 C 209.685 241.863,210.000 242.301,210.000 242.620 C 210.000 242.939,210.276 243.200,210.613 243.200 C 210.949 243.200,211.345 243.515,211.491 243.900 C 211.638 244.285,212.217 244.960,212.779 245.399 C 213.340 245.839,220.359 252.679,228.376 260.599 C 262.499 294.311,279.933 311.863,280.210 312.781 C 280.373 313.321,280.752 314.009,281.053 314.310 C 282.577 315.834,281.016 320.545,278.072 323.305 C 277.781 323.577,277.246 324.115,276.883 324.500 C 276.520 324.885,276.035 325.200,275.805 325.200 C 275.576 325.200,274.716 325.560,273.896 326.000 C 272.149 326.936,270.887 327.014,269.789 326.254 C 269.355 325.954,268.550 325.573,268.000 325.408 C 267.048 325.122,218.400 276.632,218.400 275.969 C 218.400 275.796,218.040 275.540,217.600 275.400 C 217.160 275.260,216.800 274.888,216.800 274.573 C 216.800 274.258,216.524 274.000,216.187 274.000 C 215.851 274.000,215.464 273.712,215.329 273.360 C 215.024 272.564,213.287 270.800,212.809 270.800 C 212.614 270.800,212.340 270.440,212.200 270.000 C 212.060 269.560,211.700 269.200,211.400 269.200 C 211.100 269.200,210.740 268.840,210.600 268.400 C 210.460 267.960,210.013 267.600,209.606 267.600 C 209.200 267.600,208.776 267.375,208.665 267.100 C 208.554 266.825,208.449 277.163,208.432 290.074 C 208.411 305.441,208.256 313.868,207.983 314.474 C 206.964 316.736,205.564 318.574,203.846 319.905 C 201.347 321.842,192.000 320.634,192.000 318.374 C 192.000 318.200,191.703 317.760,191.341 317.398 C 190.150 316.207,190.019 313.639,190.026 291.600 C 190.029 279.610,190.025 269.631,190.016 269.423 C 189.995 268.925,148.048 310.718,142.750 316.516 C 140.068 319.451,135.799 323.708,134.644 324.600 C 134.074 325.040,133.241 325.695,132.793 326.056 C 128.870 329.217,121.020 325.026,119.144 318.769 C 118.133 315.400,120.230 313.112,169.957 263.313 L 190.414 242.825 190.307 200.075 L 190.200 157.324 178.500 145.631 C 172.065 139.201,166.800 133.773,166.800 133.569 C 166.800 133.366,166.636 133.200,166.435 133.200 C 166.234 133.200,161.419 128.505,155.735 122.767 C 150.051 117.030,139.685 106.580,132.700 99.546 C 125.356 92.149,120.000 86.449,120.000 86.027 C 120.000 85.626,119.752 85.092,119.448 84.840 C 117.143 82.927,119.230 78.580,124.650 74.000 C 125.970 72.885,128.835 72.534,131.200 73.197 " stroke="none" fill="#374456" fill-rule="evenodd"></path><path id="path2" d="M193.400 81.050 C 192.681 81.662,192.534 81.905,193.033 81.657 C 193.766 81.293,195.141 79.976,194.749 80.014 C 194.667 80.022,194.060 80.488,193.400 81.050 M256.400 85.800 C 255.428 86.790,254.723 87.600,254.833 87.600 C 254.943 87.600,255.828 86.790,256.800 85.800 C 257.772 84.810,258.477 84.000,258.367 84.000 C 258.257 84.000,257.372 84.810,256.400 85.800 M144.400 86.600 C 145.146 87.370,145.847 88.000,145.957 88.000 C 146.067 88.000,145.546 87.370,144.800 86.600 C 144.054 85.830,143.353 85.200,143.243 85.200 C 143.133 85.200,143.654 85.830,144.400 86.600 M122.600 88.400 C 123.683 89.500,124.660 90.400,124.770 90.400 C 124.880 90.400,124.083 89.500,123.000 88.400 C 121.917 87.300,120.940 86.400,120.830 86.400 C 120.720 86.400,121.517 87.300,122.600 88.400 M190.501 88.200 C 190.505 89.080,190.587 89.393,190.683 88.895 C 190.779 88.398,190.775 87.678,190.675 87.295 C 190.575 86.913,190.496 87.320,190.501 88.200 M250.991 91.300 L 247.800 94.600 251.100 91.409 C 252.915 89.655,254.400 88.170,254.400 88.109 C 254.400 87.818,253.954 88.235,250.991 91.300 M190.578 104.400 C 190.578 111.330,190.633 114.165,190.699 110.700 C 190.766 107.235,190.766 101.565,190.699 98.100 C 190.633 94.635,190.578 97.470,190.578 104.400 M245.978 96.300 L 244.600 97.800 246.100 96.422 C 247.496 95.138,247.784 94.800,247.478 94.800 C 247.412 94.800,246.737 95.475,245.978 96.300 M131.600 97.400 C 132.346 98.170,133.047 98.800,133.157 98.800 C 133.267 98.800,132.746 98.170,132.000 97.400 C 131.254 96.630,130.553 96.000,130.443 96.000 C 130.333 96.000,130.854 96.630,131.600 97.400 M143.200 109.400 C 144.617 110.830,145.867 112.000,145.977 112.000 C 146.087 112.000,145.017 110.830,143.600 109.400 C 142.183 107.970,140.933 106.800,140.823 106.800 C 140.713 106.800,141.783 107.970,143.200 109.400 M146.400 112.525 C 146.400 112.594,146.985 113.179,147.700 113.825 L 149.000 115.000 147.825 113.700 C 146.730 112.488,146.400 112.216,146.400 112.525 M210.778 131.900 L 209.400 133.400 210.900 132.022 C 212.296 130.738,212.584 130.400,212.278 130.400 C 212.212 130.400,211.537 131.075,210.778 131.900 M218.786 147.500 L 216.600 149.800 218.900 147.614 C 220.165 146.411,221.200 145.376,221.200 145.314 C 221.200 145.017,220.818 145.363,218.786 147.500 M229.800 263.200 C 232.874 266.280,235.479 268.800,235.589 268.800 C 235.699 268.800,233.274 266.280,230.200 263.200 C 227.126 260.120,224.521 257.600,224.411 257.600 C 224.301 257.600,226.726 260.120,229.800 263.200 M190.586 292.800 C 190.586 304.350,190.637 309.075,190.700 303.300 C 190.762 297.525,190.762 288.075,190.700 282.300 C 190.637 276.525,190.586 281.250,190.586 292.800 M140.185 294.100 L 138.200 296.200 140.300 294.215 C 141.455 293.123,142.400 292.178,142.400 292.115 C 142.400 291.817,142.029 292.149,140.185 294.100 M207.774 303.000 C 207.775 308.720,207.831 311.004,207.899 308.076 C 207.968 305.148,207.967 300.468,207.899 297.676 C 207.830 294.884,207.774 297.280,207.774 303.000 M136.378 297.900 L 135.000 299.400 136.500 298.022 C 137.896 296.738,138.184 296.400,137.878 296.400 C 137.812 296.400,137.137 297.075,136.378 297.900 M150.596 307.300 L 143.400 314.600 150.700 307.404 C 157.482 300.719,158.181 300.000,157.896 300.000 C 157.839 300.000,154.554 303.285,150.596 307.300 M268.400 301.325 C 268.400 301.394,268.985 301.979,269.700 302.625 L 271.000 303.800 269.825 302.500 C 268.730 301.288,268.400 301.016,268.400 301.325 M245.200 302.525 C 245.200 302.594,245.785 303.179,246.500 303.825 L 247.800 305.000 246.625 303.700 C 245.530 302.488,245.200 302.216,245.200 302.525 M272.783 305.700 C 273.764 306.745,274.619 307.600,274.683 307.600 C 274.984 307.600,274.666 307.241,272.900 305.583 L 271.000 303.800 272.783 305.700 M250.000 307.325 C 250.000 307.394,250.585 307.979,251.300 308.625 L 252.600 309.800 251.425 308.500 C 250.330 307.288,250.000 307.016,250.000 307.325 M276.800 309.800 C 277.546 310.570,278.247 311.200,278.357 311.200 C 278.467 311.200,277.946 310.570,277.200 309.800 C 276.454 309.030,275.753 308.400,275.643 308.400 C 275.533 308.400,276.054 309.030,276.800 309.800 M257.400 314.800 C 258.259 315.680,259.052 316.400,259.162 316.400 C 259.272 316.400,258.659 315.680,257.800 314.800 C 256.941 313.920,256.148 313.200,256.038 313.200 C 255.928 313.200,256.541 313.920,257.400 314.800 M260.800 318.200 C 261.546 318.970,262.247 319.600,262.357 319.600 C 262.467 319.600,261.946 318.970,261.200 318.200 C 260.454 317.430,259.753 316.800,259.643 316.800 C 259.533 316.800,260.054 317.430,260.800 318.200 M127.905 326.683 C 128.402 326.779,129.122 326.775,129.505 326.675 C 129.887 326.575,129.480 326.496,128.600 326.501 C 127.720 326.505,127.407 326.587,127.905 326.683 " stroke="none" fill="#9ca4ac" fill-rule="evenodd"></path><path id="path3" d="M124.960 74.734 C 122.510 76.516,120.484 79.003,119.991 80.833 C 118.914 84.834,117.508 83.278,168.300 134.296 L 190.800 156.896 190.788 200.148 L 190.776 243.400 164.288 270.064 C 123.122 311.503,120.888 313.818,120.416 315.519 C 119.924 317.290,119.926 318.713,120.421 319.800 C 120.719 320.456,120.779 320.348,120.752 319.200 C 120.635 314.234,115.834 319.548,166.180 268.910 C 179.589 255.423,190.701 244.166,190.874 243.894 C 191.046 243.622,191.191 223.869,191.194 199.998 L 191.200 156.595 183.796 149.098 C 179.723 144.974,176.213 141.600,175.996 141.600 C 175.778 141.600,175.600 141.438,175.600 141.241 C 175.600 141.043,168.895 134.134,160.700 125.887 C 118.779 83.700,119.997 85.064,120.588 80.996 C 121.020 78.017,125.738 74.000,128.805 74.000 C 130.765 74.000,134.555 76.492,137.546 79.747 C 138.126 80.378,139.254 81.571,140.054 82.400 C 140.853 83.228,141.690 84.232,141.913 84.631 C 142.440 85.572,189.643 132.800,190.057 132.800 C 191.080 132.800,191.201 130.246,191.212 108.326 L 191.225 85.400 192.138 83.916 C 195.751 78.040,203.469 78.488,206.503 84.749 C 207.397 86.594,207.400 86.679,207.515 110.263 C 207.611 129.973,207.724 134.005,208.191 134.392 C 208.762 134.866,217.166 126.599,253.535 89.785 C 269.035 74.095,267.819 75.083,271.410 75.265 L 274.264 75.409 276.732 77.962 C 279.311 80.631,279.470 81.052,279.233 84.600 C 279.084 86.838,270.395 96.019,245.226 120.531 C 243.232 122.473,241.600 124.228,241.600 124.431 C 241.600 124.634,241.416 124.800,241.190 124.800 C 240.965 124.800,240.020 125.634,239.090 126.654 C 238.161 127.673,237.180 128.708,236.911 128.954 C 233.806 131.786,229.200 136.465,229.200 136.788 C 229.200 137.015,229.015 137.200,228.789 137.200 C 228.564 137.200,223.704 141.868,217.989 147.573 L 207.600 157.945 207.600 199.915 L 207.600 241.885 211.700 245.930 C 278.059 311.398,280.331 313.822,279.538 318.322 C 278.654 323.337,271.519 326.713,267.750 323.900 C 266.089 322.661,236.400 292.779,236.400 292.348 C 236.400 292.156,236.247 292.000,236.059 292.000 C 235.574 292.000,233.200 289.672,233.200 289.197 C 233.200 288.978,233.061 288.800,232.890 288.800 C 232.622 288.800,229.471 285.821,228.147 284.315 C 227.898 284.032,227.029 283.187,226.216 282.438 C 225.402 281.688,224.460 280.653,224.122 280.138 C 223.784 279.622,223.357 279.200,223.172 279.200 C 222.828 279.200,220.800 277.307,220.800 276.985 C 220.800 276.887,220.260 276.310,219.599 275.703 C 218.939 275.097,218.174 274.393,217.899 274.140 C 217.625 273.888,215.891 272.133,214.047 270.240 C 212.202 268.348,210.627 266.800,210.547 266.800 C 210.466 266.800,210.028 266.428,209.573 265.973 C 207.707 264.107,207.592 264.935,207.692 279.549 L 207.784 293.000 207.992 279.633 C 208.136 270.398,208.337 266.221,208.642 266.119 C 209.051 265.983,218.915 275.749,254.129 311.153 C 267.534 324.630,267.679 324.760,269.802 325.200 C 274.264 326.127,278.150 323.705,280.009 318.838 C 281.755 314.269,285.272 318.113,221.658 255.064 L 208.000 241.528 208.000 199.878 L 208.000 158.229 243.001 123.460 C 262.251 104.337,278.353 88.122,278.783 87.427 C 282.037 82.162,277.409 74.615,270.963 74.676 C 267.514 74.708,268.034 74.282,253.535 88.970 C 213.124 129.910,208.443 134.513,208.219 133.536 C 208.101 133.021,207.958 122.070,207.902 109.200 L 207.800 85.800 206.800 83.947 C 203.544 77.912,195.199 77.765,191.663 83.681 L 190.726 85.249 190.765 108.124 C 190.790 122.609,190.659 131.220,190.408 131.600 C 190.047 132.148,153.688 96.175,138.357 80.102 C 132.021 73.459,128.599 72.088,124.960 74.734 M166.189 290.936 C 153.423 303.731,142.353 314.982,141.589 315.937 C 138.768 319.466,133.097 324.800,132.165 324.800 C 131.908 324.800,131.474 325.070,131.200 325.400 C 130.898 325.764,130.022 326.000,128.974 326.000 C 126.508 326.000,124.630 324.812,121.660 321.373 C 121.362 321.029,121.042 320.825,120.948 320.919 C 120.668 321.198,122.865 323.574,124.758 325.039 C 128.762 328.139,132.662 326.448,139.885 318.482 C 144.465 313.429,189.483 268.400,189.954 268.400 C 190.729 268.400,190.800 270.399,190.800 292.298 L 190.800 314.930 191.811 316.654 C 196.155 324.068,207.821 320.000,207.528 311.174 L 207.456 309.000 207.317 311.000 C 207.241 312.100,206.925 313.540,206.615 314.200 C 206.305 314.860,205.965 315.691,205.859 316.046 C 205.753 316.401,204.819 317.387,203.783 318.236 C 200.066 321.281,194.921 320.440,192.211 316.345 L 191.200 314.817 191.200 291.982 C 191.200 269.399,191.100 267.547,189.886 267.636 C 189.619 267.655,178.955 278.140,166.189 290.936 " stroke="none" fill="#acacb4" fill-rule="evenodd"></path><path id="path4" d="M126.380 73.147 C 125.261 73.425,124.837 73.744,122.056 76.400 C 118.827 79.485,117.636 83.336,119.448 84.840 C 119.752 85.092,120.000 85.626,120.000 86.027 C 120.000 86.449,125.356 92.149,132.700 99.546 C 139.685 106.580,150.051 117.030,155.735 122.767 C 161.419 128.505,166.234 133.200,166.435 133.200 C 166.636 133.200,166.800 133.366,166.800 133.569 C 166.800 133.773,172.065 139.201,178.500 145.631 L 190.200 157.324 190.307 200.075 L 190.414 242.825 169.957 263.313 C 120.230 313.112,118.133 315.400,119.144 318.769 C 121.020 325.026,128.870 329.217,132.793 326.056 C 133.241 325.695,134.074 325.040,134.644 324.600 C 135.799 323.708,140.068 319.451,142.750 316.516 C 148.048 310.718,189.995 268.925,190.016 269.423 C 190.025 269.631,190.029 279.610,190.026 291.600 C 190.019 313.639,190.150 316.207,191.341 317.398 C 191.703 317.760,192.000 318.200,192.000 318.374 C 192.000 320.634,201.347 321.842,203.846 319.905 C 205.564 318.574,206.964 316.736,207.983 314.474 C 208.256 313.868,208.411 305.441,208.432 290.074 C 208.449 277.163,208.554 266.825,208.665 267.100 C 208.776 267.375,209.200 267.600,209.606 267.600 C 210.013 267.600,210.460 267.960,210.600 268.400 C 210.740 268.840,211.100 269.200,211.400 269.200 C 211.700 269.200,212.060 269.560,212.200 270.000 C 212.340 270.440,212.614 270.800,212.809 270.800 C 213.287 270.800,215.024 272.564,215.329 273.360 C 215.464 273.712,215.851 274.000,216.187 274.000 C 216.524 274.000,216.800 274.258,216.800 274.573 C 216.800 274.888,217.160 275.260,217.600 275.400 C 218.040 275.540,218.400 275.796,218.400 275.969 C 218.400 276.632,267.048 325.122,268.000 325.408 C 268.550 325.573,269.355 325.954,269.789 326.254 C 270.887 327.014,272.149 326.936,273.896 326.000 C 274.716 325.560,275.576 325.200,275.805 325.200 C 276.035 325.200,276.520 324.885,276.883 324.500 C 277.246 324.115,277.781 323.577,278.072 323.305 C 281.016 320.545,282.577 315.834,281.053 314.310 C 280.752 314.009,280.373 313.321,280.210 312.781 C 279.933 311.863,262.499 294.311,228.376 260.599 C 220.359 252.679,213.340 245.839,212.779 245.399 C 212.217 244.960,211.638 244.285,211.491 243.900 C 211.345 243.515,210.949 243.200,210.613 243.200 C 210.276 243.200,210.000 242.939,210.000 242.620 C 210.000 242.301,209.685 241.863,209.300 241.648 C 208.301 241.089,208.203 159.449,209.200 158.271 C 210.829 156.346,226.084 141.253,226.603 141.054 C 226.931 140.928,227.200 140.549,227.200 140.213 C 227.200 139.876,227.487 139.600,227.837 139.600 C 228.188 139.600,228.569 139.240,228.684 138.800 C 228.799 138.360,229.040 138.000,229.220 138.000 C 229.715 138.000,278.800 88.992,278.800 88.497 C 278.800 88.261,279.010 87.997,279.266 87.911 C 280.463 87.512,281.180 83.567,280.473 81.271 C 278.960 76.357,271.900 71.731,268.989 73.746 C 268.555 74.046,267.750 74.427,267.200 74.591 C 266.650 74.755,261.723 79.414,256.251 84.945 C 250.779 90.475,237.774 103.612,227.351 114.139 L 208.400 133.277 208.393 108.939 L 208.385 84.600 207.246 82.919 C 205.745 80.705,203.914 79.200,202.722 79.200 C 202.193 79.200,201.559 78.999,201.312 78.752 C 200.750 78.190,197.633 78.207,197.064 78.776 C 196.831 79.009,196.162 79.200,195.578 79.200 C 193.767 79.200,190.799 82.551,190.246 85.221 C 189.933 86.729,189.905 127.582,190.215 129.293 C 190.320 129.874,190.255 130.442,190.071 130.556 C 189.682 130.796,141.200 82.365,141.200 81.738 C 141.200 81.349,138.855 79.200,138.431 79.200 C 138.194 79.200,138.000 78.973,138.000 78.696 C 138.000 78.418,137.450 77.743,136.777 77.196 C 136.104 76.648,134.889 75.613,134.077 74.895 C 131.958 73.022,129.311 72.421,126.380 73.147 M132.435 74.530 C 134.475 75.746,137.870 78.982,142.385 84.014 C 149.511 91.955,189.769 131.991,190.197 131.563 C 190.458 131.300,190.600 123.058,190.600 108.079 L 190.600 85.000 191.689 83.200 C 195.260 77.298,204.114 77.872,207.059 84.197 L 207.992 86.200 208.002 109.600 C 208.008 122.470,208.159 133.231,208.337 133.512 C 208.564 133.870,216.750 125.850,235.431 106.966 C 250.154 92.083,263.079 79.073,264.154 78.053 C 265.229 77.034,266.358 75.957,266.664 75.661 C 270.891 71.567,280.003 76.910,279.999 83.480 C 279.996 87.187,282.559 84.491,220.262 146.321 L 208.452 158.042 208.206 160.121 C 208.070 161.264,208.013 180.045,208.079 201.855 L 208.200 241.510 231.800 264.895 C 244.780 277.757,260.742 293.572,267.271 300.040 C 281.596 314.231,282.136 315.081,279.833 319.855 C 278.263 323.108,274.910 325.560,271.874 325.674 C 268.418 325.804,269.075 326.396,238.088 295.256 C 214.871 271.924,208.697 265.925,208.395 266.400 C 208.163 266.763,208.010 276.060,208.006 289.961 L 208.000 312.923 207.007 315.021 C 203.920 321.548,195.571 322.595,191.668 316.946 L 190.600 315.400 190.525 292.245 C 190.484 279.510,190.297 268.937,190.110 268.750 C 189.821 268.461,149.787 308.310,138.544 320.075 C 130.813 328.165,127.713 328.687,122.143 322.834 C 119.877 320.454,119.342 318.360,120.298 315.622 C 121.108 313.303,120.197 314.251,163.277 270.883 L 190.811 243.166 190.705 200.004 L 190.600 156.842 165.966 132.121 C 135.417 101.464,121.108 86.936,120.638 86.097 C 116.793 79.231,125.690 70.507,132.435 74.530 " stroke="none" fill="#828c96" fill-rule="evenodd"></path></g></svg>